# xmcd
#
# Track frame offsets: 
#        150
#        9556
#        24090
#        43524
#        52472
#        73798
#        84163
#        90810
#        105950
#        127942
#
# Disc length: 1996 seconds
#
# Revision: 0
# Processed by: cddbd v1.5.2PL0 Copyright (c) Steve Scherf et al.
# Submitted via: ExactAudioCopy v0.99pb5
#
DISCID=6a07ca0a
DTITLE=Stefan Grossman - Fingerpicking Blues Guitar Solos
DYEAR=1990
DGENRE=Blues
TTITLE0=Return to Little Rock
TTITLE1=Yazoo Basin Boogie
TTITLE2=Tribute to Lonnie Johnson
TTITLE3=I'm So Glad
TTITLE4=Blues for the Mann
TTITLE5=Lemon's Jump
TTITLE6=Late Night Apollo Blues
TTITLE7=A Heart Much Obliged
TTITLE8=Idaho Potato
TTITLE9=Rite of Passage
EXTD=
EXTT0=
EXTT1=
EXTT2=
EXTT3=
EXTT4=
EXTT5=
EXTT6=
EXTT7=
EXTT8=
EXTT9=
PLAYORDER=
